PathFileType	4	(X/Y/Z)	 s05c0103.trc
DataRate	CameraRate	NumFrames	NumMarkers	Units	OrigDataRate	OrigDataStartFrame	OrigNumFrames
200	200	6	49	mm	200	501	2000
Frame#	Time	racr			lacr			c7			jug			rlel			rdr			llel			ldr			s2			lic			ric			lasi			rasi			rpsi			lpsi			rgt			lgt			rth1			rth2			rth3			rth4			rlfc			rsh1			rsh2			rsh3			rsh4			rlmal			rmmal			rcal			rtoe			rmt5			lth1			lth2			lth4			lth3			llfc			lmfc			lsh1			lsh2			lsh3			lsh4			llmal			lmmal			lcal			ltoe			lmt5			SBIKE			LBIKE			RBIKE			
		X1	Y1	Z1	X2	Y2	Z2	X3	Y3	Z3	X4	Y4	Z4	X5	Y5	Z5	X6	Y6	Z6	X7	Y7	Z7	X8	Y8	Z8	X9	Y9	Z9	X10	Y10	Z10	X11	Y11	Z11	X12	Y12	Z12	X13	Y13	Z13	X14	Y14	Z14	X15	Y15	Z15	X16	Y16	Z16	X17	Y17	Z17	X18	Y18	Z18	X19	Y19	Z19	X20	Y20	Z20	X21	Y21	Z21	X22	Y22	Z22	X23	Y23	Z23	X24	Y24	Z24	X25	Y25	Z25	X26	Y26	Z26	X27	Y27	Z27	X28	Y28	Z28	X29	Y29	Z29	X30	Y30	Z30	X31	Y31	Z31	X32	Y32	Z32	X33	Y33	Z33	X34	Y34	Z34	X35	Y35	Z35	X36	Y36	Z36	X37	Y37	Z37	X38	Y38	Z38	X39	Y39	Z39	X40	Y40	Z40	X41	Y41	Z41	X42	Y42	Z42	X43	Y43	Z43	X44	Y44	Z44	X45	Y45	Z45	X46	Y46	Z46	X47	Y47	Z47	X48	Y48	Z48	X49	Y49	Z49	
501	2.5050	466.384767	1262.046978	-142.012477	455.910828	1279.560900	-402.875255	445.858799	1341.002867	-276.436076	393.386899	1186.744980	-277.781741	493.484024	1038.440135	11.007533	696.139480	918.924717	-64.243640	442.198950	1029.110844	-537.372740	681.856997	944.494856	-457.133145	-115.033779	1188.327219	-238.749117	19.303540	1201.720393	-391.598630	39.377464	1181.620925	-105.462614	64.845059	1141.656833	-360.529187	73.262832	1121.258500	-140.404588	-74.893752	1228.919272	-195.582806	-79.372106	1239.997801	-280.346405	-9.520813	1061.720647	-84.593875	-46.851570	1108.854561	-422.668592	83.569455	993.255813	-74.385447	164.686846	957.101711	-71.694085	214.964502	884.470876	-74.143645	186.824178	983.889193	-83.378461	317.789622	776.442574	-95.146890	230.913833	711.563052	-69.340418	185.149296	637.512396	-85.576395	110.545657	593.706543	-90.849407	206.350940	620.629323	-112.729803	17.340515	498.732127	-101.158316	47.491567	518.756480	-179.803651	-56.894922	519.643777	-149.814362	148.130868	304.610418	-150.088266	57.209851	353.563452	-85.594831	48.644823	995.684555	-449.852828	126.577204	959.249930	-449.979448	151.385904	985.209183	-438.839511	176.833921	884.079335	-451.173905	278.399685	775.734502	-423.391452	265.751974	756.375261	-317.147498	249.292957	649.361722	-451.080157	262.752488	563.577022	-439.915015	230.350091	481.020735	-439.983121	292.110770	563.101204	-414.928104	225.386245	355.568157	-433.861034	NaN	NaN	NaN	168.305722	305.641403	-391.673011	461.829112	336.356353	-393.330834	360.746758	290.898163	-457.617487	-166.553539	929.073183	-206.862297	-43.683841	84.830550	-474.583294	-51.849916	80.109428	-77.087732	
502	2.5100	466.928045	1263.194659	-141.015196	457.364907	1280.486790	-401.936426	447.029625	1342.001325	-275.478303	394.441355	1187.725518	-276.823080	494.256797	1039.291342	11.362996	696.396989	918.975960	-64.210848	443.073802	1030.300145	-536.927991	682.319398	944.598630	-456.951427	-114.270040	1189.703608	-240.192957	21.160489	1202.104650	-392.618429	39.411018	1183.387868	-106.377025	66.519386	1141.883284	-361.177072	73.502061	1122.975511	-140.821643	-74.770299	1230.316581	-198.151415	-77.851073	1240.812455	-282.185383	-8.983814	1064.317003	-84.950079	-45.589825	1108.945834	-423.359297	84.299408	996.026164	-74.321180	165.888903	960.868823	-71.167877	216.986866	888.857151	-73.522684	187.811881	987.997517	-82.776418	320.782943	781.743550	-94.626266	233.522354	717.153978	-69.005842	187.403322	643.250008	-85.271934	112.605158	599.934335	-90.776538	208.647668	626.401751	-112.341290	19.053067	505.417775	-101.089628	49.454466	525.630752	-179.753369	-55.139487	526.704692	-149.871214	149.419368	311.075617	-150.022404	58.638759	360.326921	-85.520284	48.518222	994.852602	-450.281046	125.845194	957.251554	-450.426394	151.022341	982.804587	-439.172676	174.883871	881.268482	-451.584664	274.779384	771.267730	-423.301274	263.355292	753.786552	-317.424526	246.528521	644.786050	-451.309283	260.599779	559.123005	-440.093046	228.844746	476.240706	-440.323401	289.838828	558.685167	-414.930090	224.843893	350.819034	-434.153177	NaN	NaN	NaN	167.525319	301.484829	-392.066475	461.089592	328.180923	-392.485326	359.932513	284.649209	-457.642993	-167.353208	928.703978	-207.891905	-43.676817	84.853029	-474.570792	-51.858245	80.116455	-77.092992	
503	2.5150	467.516100	1264.170256	-140.032453	458.966250	1281.305883	-401.011248	448.243865	1342.855106	-274.417977	395.657830	1188.748459	-275.988454	495.052894	1040.163493	11.899276	696.618274	919.047303	-64.194638	443.970956	1031.466095	-536.411651	682.823904	944.751437	-456.776932	-113.317223	1190.823938	-241.623719	23.112060	1202.431718	-393.675522	39.512886	1185.195082	-107.342635	68.247848	1142.080530	-361.860419	73.794427	1124.674607	-141.356693	-73.935535	1231.697889	-199.987861	-74.765498	1241.123679	-284.606179	-8.365698	1066.968074	-85.339650	-44.224241	1109.013725	-424.115108	85.138843	999.012971	-73.806506	167.173299	964.741067	-70.660274	219.118013	893.289584	-72.815143	188.699498	992.002868	-82.441675	323.867595	787.069594	-94.213195	236.067396	723.058777	-68.652262	189.874675	649.393143	-84.970654	114.804378	606.240578	-90.755960	211.116897	632.022162	-111.929144	21.036036	512.245828	-101.046575	51.655058	532.236343	-179.679502	-53.112685	533.598771	-149.875171	150.984160	317.671901	-149.951548	60.265297	367.087497	-85.608318	48.436573	993.978979	-450.711828	125.093271	955.161372	-450.803036	150.659480	980.231658	-439.573089	172.902370	878.359974	-452.177431	271.073217	766.936136	-423.334578	259.808011	749.384224	-317.550814	243.748895	640.226723	-451.830251	258.203221	554.540474	-440.321012	227.225963	471.452022	-440.667757	287.344730	554.356342	-414.983248	224.042009	346.135056	-434.390344	NaN	NaN	NaN	166.535739	297.263029	-392.477702	460.459833	320.658005	-392.236249	358.955256	278.330752	-457.600912	-168.126228	928.378689	-208.840540	-43.650259	84.882608	-474.559329	-51.855573	80.119643	-77.100710	
504	2.5200	468.037631	1265.298424	-139.032848	460.541223	1282.240009	-399.967535	449.444072	1343.936761	-273.238665	396.757617	1189.773267	-275.151048	495.788752	1041.050897	12.562402	696.785407	919.156633	-64.125990	444.872924	1032.722720	-535.881989	683.278564	944.879925	-456.621200	-111.507094	1191.313540	-243.560534	25.198780	1202.678463	-394.898196	39.666712	1186.912856	-108.348923	70.025657	1142.238278	-362.575947	74.141895	1126.299168	-141.914619	-73.121709	1232.937939	-201.806842	-73.485351	1241.974908	-286.527290	-7.642933	1069.489927	-85.869575	-42.809487	1109.013967	-424.878081	86.034971	1001.864309	-73.230316	168.471296	968.640965	-70.311409	221.246120	897.825473	-72.154387	189.596618	996.008820	-82.523870	326.939832	792.588341	-93.785366	238.853735	728.914421	-68.320235	192.358752	655.419899	-84.619839	117.120861	612.699946	-90.666669	213.695143	637.935248	-111.520022	23.174139	518.927383	-101.150603	53.792311	538.869373	-179.561958	-50.896963	540.395396	-149.932060	152.789802	324.168287	-149.932088	62.363373	374.222794	-85.096048	48.420918	992.995183	-451.128233	124.404892	952.918801	-451.301024	150.350077	977.651656	-439.965123	170.908204	875.368107	-452.527778	267.183119	762.458389	-423.349151	257.010432	745.860847	-317.481259	240.605737	635.511484	-452.095514	255.638282	549.950441	-440.562572	225.239992	466.676230	-441.042839	284.714246	550.090167	-415.215270	223.023110	341.463547	-434.694670	NaN	NaN	NaN	165.322311	293.015786	-392.972280	459.463811	313.258540	-392.066450	357.654208	272.149480	-457.696291	-165.311875	933.119264	-207.096593	-43.663564	84.893001	-474.561816	-51.833972	80.141546	-77.100365	
505	2.5250	468.535020	1266.620237	-137.798858	462.140263	1283.087299	-399.019856	450.603381	1344.891689	-272.412616	397.856312	1190.701868	-274.428057	496.424017	1041.987360	13.379544	696.908447	919.240835	-64.025373	445.695467	1033.908837	-535.400565	683.681744	945.012417	-456.491743	-110.050713	1191.974399	-245.234668	27.227615	1202.745727	-396.053533	39.753704	1188.553125	-109.476908	71.847206	1142.347182	-363.320030	74.563953	1127.889958	-142.524079	-72.421184	1234.179894	-203.863634	-72.202951	1242.670736	-288.476356	-6.993484	1071.947210	-86.522834	-41.324154	1108.895518	-425.698834	87.066407	1004.643378	-72.774896	169.874939	972.623376	-70.111987	223.536399	902.516448	-71.544702	190.714663	1000.368840	-82.395777	330.089820	798.531567	-92.944181	241.216390	735.005145	-67.995602	194.344151	661.502533	-84.657864	119.580422	619.107194	-90.591286	216.338480	643.843677	-111.024257	25.642023	525.596095	-101.123170	56.407282	545.588849	-179.609661	-48.436360	547.192012	-150.056910	154.884786	330.675194	-149.888855	64.538938	380.892104	-85.142127	48.477289	991.976500	-451.669936	123.703406	950.561283	-451.783635	150.095670	974.846883	-440.426629	168.791513	872.151077	-452.772520	263.226804	757.844089	-423.423645	250.877383	739.908074	-317.847316	237.340236	630.802678	-452.614567	252.756736	545.271816	-440.966300	222.991754	461.853841	-441.412044	281.824517	545.608447	-415.424924	221.750142	336.788337	-435.069863	NaN	NaN	NaN	163.792365	288.955119	-393.468174	458.184044	305.810119	-391.924478	356.073903	265.920723	-457.726970	-163.740488	936.080852	-205.222488	-43.646439	84.914114	-474.569656	-51.835252	80.169122	-77.095957	
506	2.5300	469.049455	1267.645734	-136.784586	463.816988	1283.817955	-398.198911	451.759654	1345.884517	-271.322732	399.071184	1191.819841	-273.639438	496.979741	1042.856498	14.205723	697.005761	919.298952	-63.912788	446.398150	1034.997871	-535.022914	684.016024	945.112176	-456.391246	-108.721428	1192.565638	-247.158524	29.262728	1202.824274	-397.204879	39.922509	1190.091132	-110.645301	73.706143	1142.399003	-364.088948	74.951232	1129.345850	-143.212648	-71.576161	1235.263600	-205.854038	-70.736598	1243.164133	-290.486269	-6.276908	1074.177508	-87.444397	-39.736123	1108.658803	-426.594927	88.117459	1007.690585	-72.674231	171.342875	976.668811	-70.126766	225.855336	907.284332	-71.083830	191.853495	1004.773355	-82.448913	333.287239	804.386606	-92.433182	244.068265	741.155833	-67.681719	196.998349	667.744673	-84.284602	122.067246	625.516128	-90.559885	219.172405	649.919461	-110.272159	28.211565	532.233451	-101.220930	59.102759	552.047276	-179.630102	-45.856049	553.940287	-150.262909	157.223542	337.218120	-149.911073	66.993596	387.453610	-85.233630	48.556196	990.847930	-452.281826	123.041134	948.089587	-452.437897	149.803469	971.885580	-440.942653	166.742566	868.887770	-453.122526	259.174476	753.346996	-423.575559	246.875353	735.481179	-318.141191	233.821643	626.144676	-453.088881	249.899099	540.837733	-441.353858	220.583222	456.995810	-441.873021	279.235768	541.535455	-416.630785	220.251370	332.143698	-435.410563	NaN	NaN	NaN	162.048626	284.823725	-394.026812	456.642716	298.463870	-391.682673	354.265592	259.709119	-457.800768	-168.242404	930.418603	-205.780648	-43.653692	84.918558	-474.580916	-51.834811	80.151337	-77.114837	
